<mxfile host="app.diagrams.net" modified="2023-11-07T13:20:52.864Z" agent="Mozilla/5.0 (Windows NT 10.0; Win64; x64) AppleWebKit/537.36 (KHTML, like Gecko) Chrome/119.0.0.0 Safari/537.36 Edg/119.0.0.0" version="22.0.8" etag="XXI4EV4-fl8CpVPLAB8m" type="github">
  <diagram name="Page-1" id="s0PbOv1kthub0jjKfzzq">
    <mxGraphModel>
      <root>
        <mxCell id="0" />
        <mxCell id="1" parent="0" />
      </root>
    </mxGraphModel>
  </diagram>
</mxfile>
